<svg width="40" height="40" viewBox="0 0 40 40" fill="none" xmlns="http://www.w3.org/2000/svg">
<path d="M35.75 28.75H11.25V4.25H35.75M35.75 0.75H11.25C10.3217 0.75 9.4315 1.11875 8.77513 1.77513C8.11875 2.4315 7.75 3.32174 7.75 4.25V28.75C7.75 29.6783 8.11875 30.5685 8.77513 31.2249C9.4315 31.8813 10.3217 32.25 11.25 32.25H35.75C36.6783 32.25 37.5685 31.8813 38.2249 31.2249C38.8812 30.5685 39.25 29.6783 39.25 28.75V4.25C39.25 3.32174 38.8812 2.4315 38.2249 1.77513C37.5685 1.11875 36.6783 0.75 35.75 0.75ZM23.5 25.25H27V7.75H20V11.25H23.5M4.25 7.75H0.75V35.75C0.75 36.6783 1.11875 37.5685 1.77513 38.2249C2.4315 38.8812 3.32174 39.25 4.25 39.25H32.25V35.75H4.25V7.75Z" fill="#0F5FC2"/>
</svg>
