<svg width="32" height="36" viewBox="0 0 32 36" fill="none" xmlns="http://www.w3.org/2000/svg">
<path d="M7.25 18.25H10.75V21.75H7.25V18.25ZM31.75 7.75V32.25C31.75 34.1925 30.1925 35.75 28.25 35.75H3.75C1.8075 35.75 0.25 34.175 0.25 32.25V7.75C0.25 5.825 1.825 4.25 3.75 4.25H5.5V0.75H9V4.25H23V0.75H26.5V4.25H28.25C30.1925 4.25 31.75 5.825 31.75 7.75ZM3.75 11.25H28.25V7.75H3.75V11.25ZM28.25 32.25V14.75H3.75V32.25H28.25ZM21.25 21.75V18.25H24.75V21.75H21.25ZM14.25 21.75V18.25H17.75V21.75H14.25ZM7.25 25.25H10.75V28.75H7.25V25.25ZM21.25 28.75V25.25H24.75V28.75H21.25ZM14.25 28.75V25.25H17.75V28.75H14.25Z" fill="#DA001A"/>
</svg>
