<svg width="31" height="29" viewBox="0 0 31 29" fill="none" xmlns="http://www.w3.org/2000/svg">
<path d="M4 4.33301V0.333008H6.66667V4.33301H10.6667V6.99967H6.66667V10.9997H4V6.99967H0V4.33301M8 12.333V8.33301H12V4.33301H21.3333L23.7333 6.99967H28C29.4667 6.99967 30.6667 8.19967 30.6667 9.66634V25.6663C30.6667 27.133 29.4667 28.333 28 28.333H6.66667C5.2 28.333 4 27.133 4 25.6663V12.333M17.3333 24.333C23.2667 24.333 26.2533 17.1597 22.0533 12.9463C17.8533 8.74634 10.6667 11.733 10.6667 17.6663C10.6667 21.3463 13.6533 24.333 17.3333 24.333ZM13.0667 17.6663C13.0667 21.4663 17.6667 23.373 20.3467 20.6797C23.04 17.9997 21.1333 13.3997 17.3333 13.3997C14.9867 13.3997 13.0667 15.3197 13.0667 17.6663Z" fill="black" fill-opacity="0.8"/>
</svg>
